<svg version="1.1"
      xmlns="http://www.w3.org/2000/svg"
      xmlns:xlink="http://www.w3.org/1999/xlink"  id="snapshot-51009" width="250" height="250" viewBox="0 0 250 250"><desc>This image was made on Patterninja.com</desc><defs>
<!-- image 29331 -->
<g id="transformed-29331" data-image="29331" transform="translate(-28.0178514522438, -26.672994582536095) rotate(2, 28.0178514522438, 26.672994582536095)"><g><svg version="1.1" width="56.0357029044876px" height="53.34598916507219px" viewBox="0 0 56.0357029044876 53.34598916507219"><g id="original-29331"><svg xmlns="http://www.w3.org/2000/svg" viewBox="0 0 66 63" xmlns:xlink="http://www.w3.org/1999/xlink" version="1.1" preserveAspectRatio="xMidYMid meet">
  <path fill-rule="evenodd" d="M60 63H6a6 6 0 0 1-6-6c0-22.091 15-28 33-28s33 5.909 33 28a6 6 0 0 1-6 6z" fill="rgba(68, 178, 182, 1)" stroke="none"/>
  <path fill-rule="evenodd" d="M19 31l15 6-6 9z" fill="rgba(255, 255, 255, 1)" stroke="none"/>
  <path fill-rule="evenodd" d="M48 31l-15 6 6 9z" fill="rgba(255, 255, 255, 1)" stroke="none"/>
  <circle cx="33" cy="19" r="18" fill-rule="evenodd" fill="rgba(242, 205, 174, 1)" stroke="none"/>
  <path fill-rule="evenodd" d="M51.96 19.785A30.636 30.636 0 0 1 48.5 20c-9.794 0-18.109-4.594-21.2-11h-.628a18.955 18.955 0 0 1-7 6.692 21.2 21.2 0 0 1-5.625 2.27A18.984 18.984 0 0 1 26.952 1h.094c.93-.311 1.883-.554 2.849-.725l.184-.028c.412-.067.828-.121 1.249-.163A19.254 19.254 0 0 1 33 0a19.009 19.009 0 0 1 18.614 15.171A19.09 19.09 0 0 1 52 19c0 .265-.029.523-.04.785z" fill="rgba(171, 97, 37, 1)" stroke="none"/>
</svg>
</g></svg></g></g>
<!-- /image 29331 -->

<!-- image 42266 -->
<g id="transformed-42266" data-image="42266" transform="translate(150.8827572313763, 46.88275723137632) rotate(353, 17.11724276862369, 17.117242768623683)"><g><svg version="1.1" width="34.23448553724738px" height="34.234485537247366px" viewBox="0 0 34.23448553724738 34.234485537247366"><g id="original-42266"><svg xmlns="http://www.w3.org/2000/svg" viewBox="0 0 66 66" xmlns:xlink="http://www.w3.org/1999/xlink" version="1.1" preserveAspectRatio="xMidYMid meet">
  <path fill-rule="evenodd" d="M8.251 35.121l22.628 22.628-4.95 7.778L.473 40.071z" fill="rgba(125, 125, 125, 1)" stroke="none"/>
  <path fill-rule="evenodd" d="M11.08 54.92a5.881 5.881 0 0 1 .174 8.311c-2.577 2.577-9.367 2.3-10.074 1.589-.707-.711-.988-7.5 1.589-10.074a5.881 5.881 0 0 1 8.311.174z" fill="rgba(255, 84, 0, 1)" stroke="none"/>
  <path fill-rule="evenodd" d="M.473 27.343l1.414-1.414s10.629-2.055 20.551-11.977C42.065-5.675 64.82 1.18 64.82 1.18s6.855 22.755-12.772 42.382c-9.922 9.922-11.977 20.551-11.977 20.551l-1.414 1.414L.473 27.343z" fill="rgba(176, 206, 216, 1)" stroke="none"/>
  <path fill-rule="evenodd" d="M47.142 18.858a10 10 0 1 1-14.142 0c3.905-3.905 10.237-3.905 14.142 0z" fill="rgba(139, 171, 182, 1)" stroke="none"/>
  <path fill-rule="evenodd" d="M45.021 20.979a7 7 0 1 1-9.9 9.899 7 7 0 0 1 9.9-9.899z" fill="rgba(237, 245, 248, 1)" stroke="none"/>
</svg>
</g></svg></g></g>
<!-- /image 42266 -->

<!-- image 50049 -->
<g id="transformed-50049" data-image="50049" transform="translate(120.23523965146282, 107.23523965146282) rotate(331, 31.764760348537173, 31.76476034853718)"><g><svg version="1.1" width="63.52952069707435px" height="63.52952069707436px" viewBox="0 0 63.52952069707435 63.52952069707436"><g id="original-50049"><svg xmlns="http://www.w3.org/2000/svg" viewBox="0 0 72 72" xmlns:xlink="http://www.w3.org/1999/xlink" version="1.1" preserveAspectRatio="xMidYMid meet">
  <path fill-rule="evenodd" d="M40.528 10H20a6 6 0 0 0-6 6v30a6 6 0 0 0 6 6h46a6 6 0 0 0 6-6V16a6 6 0 0 0-6-6h-4.522L51.823.345a1.159 1.159 0 0 0-1.64 0L40.528 10z" fill="rgba(255, 173, 16, 1)" stroke="none"/>
  <path fill-rule="evenodd" d="M31.472 62H52a6 6 0 0 0 6-6V26a6 6 0 0 0-6-6H6a6 6 0 0 0-6 6v30a6 6 0 0 0 6 6h4.522l9.655 9.655a1.159 1.159 0 0 0 1.64 0L31.472 62z" fill="rgba(0, 163, 198, 1)" stroke="none"/>
  <path fill-rule="evenodd" d="M41 37a4 4 0 1 1 0 8 4 4 0 0 1 0-8z" fill="rgba(0, 106, 129, 1)" stroke="none"/>
  <path fill-rule="evenodd" d="M29 37a4 4 0 1 1 0 8 4 4 0 0 1 0-8z" fill="rgba(0, 106, 129, 1)" stroke="none"/>
  <path fill-rule="evenodd" d="M17 37a4 4 0 1 1 0 8 4 4 0 0 1 0-8z" fill="rgba(0, 106, 129, 1)" stroke="none"/>
</svg>
</g></svg></g></g>
<!-- /image 50049 -->

<!-- image 95295 -->
<g id="transformed-95295" data-image="95295" transform="translate(55.982148547756196, 17.982148547756225) rotate(2, 28.0178514522438, 28.017851452243775)"><g><svg version="1.1" width="56.0357029044876px" height="56.03570290448755px" viewBox="0 0 56.0357029044876 56.03570290448755"><g id="original-95295"><svg xmlns="http://www.w3.org/2000/svg" viewBox="0 0 71 71" xmlns:xlink="http://www.w3.org/1999/xlink" version="1.1" preserveAspectRatio="xMidYMid meet">
  <path fill-rule="evenodd" d="M40 8.024l7.648 7.652-35.181 35.2-7.648-7.652z" fill="rgba(69, 111, 216, 1)" stroke="none"/>
  <path fill-rule="evenodd" d="M46.65 14.676l8.648 8.651-35.181 35.2-8.648-8.652z" fill="rgba(86, 127, 229, 1)" stroke="none"/>
  <path fill-rule="evenodd" d="M54.3 22.327l8.648 8.652-35.181 35.2-8.648-8.651z" fill="rgba(50, 88, 182, 1)" stroke="none"/>
  <path fill-rule="evenodd" d="M55.3 1.9l13.767 13.774a6.5 6.5 0 0 1 0 9.182L46.12 1.9a6.489 6.489 0 0 1 9.18 0z" fill="rgba(255, 114, 177, 1)" stroke="none"/>
  <path fill-rule="evenodd" d="M47.12.9l22.945 22.956a1.083 1.083 0 0 1 0 1.53l-5.589 5.591a1.081 1.081 0 0 1-1.53 0L40 8.024a1.084 1.084 0 0 1 0-1.531L45.589.902A1.082 1.082 0 0 1 47.12.9z" fill="rgba(198, 198, 198, 1)" stroke="none"/>
  <path fill-rule="evenodd" d="M4.821 43.222l22.944 22.955L1 70z" fill="rgba(255, 200, 51, 1)" stroke="none"/>
  <path fill-rule="evenodd" d="M11.366 68.664L0 71l2.338-11.373z" fill="rgba(86, 127, 229, 1)" stroke="none"/>
</svg>
</g></svg></g></g>
<!-- /image 95295 -->

<!-- image 68786 -->
<g id="transformed-68786" data-image="68786" transform="translate(-30.114099732158877, 111.81867943784289) rotate(19, 35.11409973215888, 31.18132056215711)"><g><svg version="1.1" width="70.22819946431775px" height="62.36264112431422px" viewBox="0 0 70.22819946431775 62.36264112431422"><g id="original-68786"><svg xmlns="http://www.w3.org/2000/svg" viewBox="0 0 72 64" xmlns:xlink="http://www.w3.org/1999/xlink" version="1.1" preserveAspectRatio="xMidYMid meet">
  <path fill-rule="evenodd" d="M36 64C29.7 64 0 42.055 0 20.112 0 13.812.67-.002 18.9-.002c7.482 0 14.106 5.712 17.1 11.886C38.994 5.71 45.618-.002 53.1-.002 71.33-.002 72 13.811 72 20.112 72 42.057 42.3 64 36 64z" fill="rgba(219, 89, 64, 1)" stroke="none"/>
  <path fill-rule="evenodd" d="M36 11.884C38.994 5.71 45.618-.002 53.1-.002 71.33-.002 72 13.811 72 20.112 72 42.057 42.3 64 36 64V11.884z" fill="rgba(198, 78, 55, 1)" stroke="none"/>
</svg>
</g></svg></g></g>
<!-- /image 68786 -->

<!-- image 33634 -->
<g id="transformed-33634" data-image="33634" transform="translate(68.63461059795398, 178.3643578734473) rotate(335, 17.365389402046016, 28.635642126552707)"><g><svg version="1.1" width="34.73077880409203px" height="57.271284253105414px" viewBox="0 0 34.73077880409203 57.271284253105414"><g id="original-33634"><svg xmlns="http://www.w3.org/2000/svg" viewBox="0 0 46 76" xmlns:xlink="http://www.w3.org/1999/xlink" version="1.1" preserveAspectRatio="xMidYMid meet">
  <rect width="46" height="76" fill-rule="evenodd" rx="6" fill="rgba(111, 130, 164, 1)" stroke="none"/>
  <path fill-rule="evenodd" d="M4 12h38v52H4z" fill="rgba(165, 181, 211, 1)" stroke="none"/>
  <path fill-rule="evenodd" d="M19 5h8a1 1 0 0 1 0 2h-8a1 1 0 0 1 0-2z" fill="rgba(81, 96, 120, 1)" stroke="none"/>
  <path fill-rule="evenodd" d="M23 66a3 3 0 1 1 0 6 3 3 0 0 1 0-6z" fill="rgba(81, 96, 120, 1)" stroke="none"/>
</svg>
</g></svg></g></g>
<!-- /image 33634 -->

<!-- image 74623 -->
<g id="transformed-74623" data-image="74623" transform="translate(162.7762515838433, 206.77625158384333) rotate(351, 20.223748416156685, 20.223748416156678)"><g><svg version="1.1" width="40.44749683231337px" height="40.447496832313355px" viewBox="0 0 40.44749683231337 40.447496832313355"><g id="original-74623"><svg xmlns="http://www.w3.org/2000/svg" viewBox="0 0 66 66" xmlns:xlink="http://www.w3.org/1999/xlink" version="1.1" preserveAspectRatio="xMidYMid meet">
  <path fill-rule="evenodd" d="M63 66H3a3 3 0 0 1-3-3V3a3 3 0 0 1 3-3h51l12 12v51a3 3 0 0 1-3 3z" fill="rgba(93, 105, 155, 1)" stroke="none"/>
  <path fill-rule="evenodd" d="M54 0v21a3 3 0 0 1-3 3H15a3 3 0 0 1-3-3V0h42z" fill="rgba(178, 178, 178, 1)" stroke="none"/>
  <path fill-rule="evenodd" d="M39 4h11v16H39z" fill="rgba(116, 122, 145, 1)" stroke="none"/>
  <path fill-rule="evenodd" d="M54 66V37a3 3 0 0 0-3-3H15a3 3 0 0 0-3 3v29h42z" fill="rgba(217, 217, 194, 1)" stroke="none"/>
  <path fill-rule="evenodd" d="M19.5 57h27a.5.5 0 1 1 0 1h-27a.5.5 0 1 1 0-1z" fill="rgba(116, 122, 144, 1)" stroke="none"/>
  <path fill-rule="evenodd" d="M19.5 49h27a.5.5 0 1 1 0 1h-27a.5.5 0 1 1 0-1z" fill="rgba(116, 122, 144, 1)" stroke="none"/>
  <path fill-rule="evenodd" d="M19.5 41h27a.5.5 0 1 1 0 1h-27a.5.5 0 1 1 0-1z" fill="rgba(116, 122, 144, 1)" stroke="none"/>
</svg>
</g></svg></g></g>
<!-- /image 74623 -->
</defs><rect x="0" y="0" width="250" height="250" fill="rgba(29, 29, 29, 1)"></rect><use xlink:href="#transformed-29331" transform="translate(-250, -250)"></use><use xlink:href="#transformed-29331" transform="translate(0, -250)"></use><use xlink:href="#transformed-29331" transform="translate(250, -250)"></use><use xlink:href="#transformed-29331" transform="translate(-250, 0)"></use><use xlink:href="#transformed-29331" transform="translate(0, 0)"></use><use xlink:href="#transformed-29331" transform="translate(250, 0)"></use><use xlink:href="#transformed-29331" transform="translate(-250, 250)"></use><use xlink:href="#transformed-29331" transform="translate(0, 250)"></use><use xlink:href="#transformed-29331" transform="translate(250, 250)"></use><use xlink:href="#transformed-42266" transform="translate(-250, -250)"></use><use xlink:href="#transformed-42266" transform="translate(0, -250)"></use><use xlink:href="#transformed-42266" transform="translate(250, -250)"></use><use xlink:href="#transformed-42266" transform="translate(-250, 0)"></use><use xlink:href="#transformed-42266" transform="translate(0, 0)"></use><use xlink:href="#transformed-42266" transform="translate(250, 0)"></use><use xlink:href="#transformed-42266" transform="translate(-250, 250)"></use><use xlink:href="#transformed-42266" transform="translate(0, 250)"></use><use xlink:href="#transformed-42266" transform="translate(250, 250)"></use><use xlink:href="#transformed-50049" transform="translate(-250, -250)"></use><use xlink:href="#transformed-50049" transform="translate(0, -250)"></use><use xlink:href="#transformed-50049" transform="translate(250, -250)"></use><use xlink:href="#transformed-50049" transform="translate(-250, 0)"></use><use xlink:href="#transformed-50049" transform="translate(0, 0)"></use><use xlink:href="#transformed-50049" transform="translate(250, 0)"></use><use xlink:href="#transformed-50049" transform="translate(-250, 250)"></use><use xlink:href="#transformed-50049" transform="translate(0, 250)"></use><use xlink:href="#transformed-50049" transform="translate(250, 250)"></use><use xlink:href="#transformed-95295" transform="translate(-250, -250)"></use><use xlink:href="#transformed-95295" transform="translate(0, -250)"></use><use xlink:href="#transformed-95295" transform="translate(250, -250)"></use><use xlink:href="#transformed-95295" transform="translate(-250, 0)"></use><use xlink:href="#transformed-95295" transform="translate(0, 0)"></use><use xlink:href="#transformed-95295" transform="translate(250, 0)"></use><use xlink:href="#transformed-95295" transform="translate(-250, 250)"></use><use xlink:href="#transformed-95295" transform="translate(0, 250)"></use><use xlink:href="#transformed-95295" transform="translate(250, 250)"></use><use xlink:href="#transformed-68786" transform="translate(-250, -250)"></use><use xlink:href="#transformed-68786" transform="translate(0, -250)"></use><use xlink:href="#transformed-68786" transform="translate(250, -250)"></use><use xlink:href="#transformed-68786" transform="translate(-250, 0)"></use><use xlink:href="#transformed-68786" transform="translate(0, 0)"></use><use xlink:href="#transformed-68786" transform="translate(250, 0)"></use><use xlink:href="#transformed-68786" transform="translate(-250, 250)"></use><use xlink:href="#transformed-68786" transform="translate(0, 250)"></use><use xlink:href="#transformed-68786" transform="translate(250, 250)"></use><use xlink:href="#transformed-33634" transform="translate(-250, -250)"></use><use xlink:href="#transformed-33634" transform="translate(0, -250)"></use><use xlink:href="#transformed-33634" transform="translate(250, -250)"></use><use xlink:href="#transformed-33634" transform="translate(-250, 0)"></use><use xlink:href="#transformed-33634" transform="translate(0, 0)"></use><use xlink:href="#transformed-33634" transform="translate(250, 0)"></use><use xlink:href="#transformed-33634" transform="translate(-250, 250)"></use><use xlink:href="#transformed-33634" transform="translate(0, 250)"></use><use xlink:href="#transformed-33634" transform="translate(250, 250)"></use><use xlink:href="#transformed-74623" transform="translate(-250, -250)"></use><use xlink:href="#transformed-74623" transform="translate(0, -250)"></use><use xlink:href="#transformed-74623" transform="translate(250, -250)"></use><use xlink:href="#transformed-74623" transform="translate(-250, 0)"></use><use xlink:href="#transformed-74623" transform="translate(0, 0)"></use><use xlink:href="#transformed-74623" transform="translate(250, 0)"></use><use xlink:href="#transformed-74623" transform="translate(-250, 250)"></use><use xlink:href="#transformed-74623" transform="translate(0, 250)"></use><use xlink:href="#transformed-74623" transform="translate(250, 250)"></use></svg>